<svg xmlns="http://www.w3.org/2000/svg" xmlns:xlink="http://www.w3.org/1999/xlink" viewBox="0 0 64 64" width="48"
  height="48">
  <defs>
    <linearGradient id="prefix__a" x1="44.4" y1="46.72" x2="59.01" y2="15.38" gradientUnits="userSpaceOnUse">
      <stop offset="0" stop-color="#d4202c" />
      <stop offset=".1" stop-color="#dc3d29" stop-opacity=".79" />
      <stop offset=".2" stop-color="#e45926" stop-opacity=".58" />
      <stop offset=".32" stop-color="#eb7123" stop-opacity=".4" />
      <stop offset=".43" stop-color="#f08521" stop-opacity=".25" />
      <stop offset=".55" stop-color="#f5941f" stop-opacity=".14" />
      <stop offset=".68" stop-color="#f89f1e" stop-opacity=".06" />
      <stop offset=".82" stop-color="#f9a51d" stop-opacity=".02" />
      <stop offset="1" stop-color="#faa71d" stop-opacity="0" />
    </linearGradient>
    <linearGradient id="prefix__b" x1="1667.91" y1="937.32" x2="1682.52" y2="905.98"
      gradientTransform="rotate(180 843.75 477.3)" xlink:href="#prefix__a" />
  </defs>
  <path
    d="M56.93 15a5.7 5.7 0 00-5 3l-.13.23-4.5 8.88-5.7 11.22 3.73 7.35.21.41A5.83 5.83 0 0048 48.4a5.83 5.83 0 002.49-2.35l.2-.41 11.2-22 .27-.53a5.61 5.61 0 00.49-2.32A5.74 5.74 0 0056.93 15zM22.39 25.68l-3.72-7.32-.21-.36A5.86 5.86 0 0016 15.6a5.88 5.88 0 00-2.51 2.4l-.2.4-11.2 22.01-.27.53A5.74 5.74 0 0012.09 46l.12-.23 4.51-8.88 5.69-11.21z"
    fill="#ff5100" />
  <path
    d="M56.92 15a5.73 5.73 0 00-5 3l-.12.23-4.5 8.88-5.7 11.22 3.73 7.35.21.41A5.83 5.83 0 0048 48.4a5.88 5.88 0 002.49-2.35l.2-.41 11.2-22 .27-.53a5.61 5.61 0 00.49-2.32A5.74 5.74 0 0056.92 15z"
    fill="url(#prefix__a)" />
  <path
    d="M7.07 49a5.71 5.71 0 005-3l.12-.23 4.51-8.88 5.7-11.22-3.73-7.35-.2-.32A5.83 5.83 0 0016 15.6a5.77 5.77 0 00-2.51 2.4l-.21.41-11.19 22-.27.53a5.61 5.61 0 00-.49 2.32A5.74 5.74 0 007.07 49z"
    fill="url(#prefix__b)" />
  <path
    d="M22.39 25.68l-3.72-7.32-.21-.36A5.77 5.77 0 0016 15.6a6 6 0 011.09-.41 5.76 5.76 0 011.42-.19h7.81a5.78 5.78 0 015 2.95l.21.41 10.08 20 3.72 7.32.2.41A5.88 5.88 0 0048 48.4a5.74 5.74 0 01-2.54.6h-7.8a5.78 5.78 0 01-5-2.94l-.2-.41z"
    fill="#ff8c44" />
</svg>
